<mxfile host="app.diagrams.net" modified="2021-09-24T16:27:18.505Z" agent="5.0 (Windows NT 10.0; Win64; x64) AppleWebKit/537.36 (KHTML, like Gecko) Chrome/94.0.4606.54 Safari/537.36" etag="SmFsa7S2ZlPIll_g_kRm" version="15.3.1" type="github">
  <diagram id="wR1WR9lnWA_ncbIi7QmO" name="Page-1">
    <mxGraphModel dx="1550" dy="779" grid="1" gridSize="10" guides="1" tooltips="1" connect="1" arrows="1" fold="1" page="1" pageScale="1" pageWidth="827" pageHeight="1169" math="0" shadow="0">
      <root>
        <mxCell id="0" />
        <mxCell id="1" parent="0" />
        <mxCell id="B84BK40B7i30qpXyUebE-8" value="&#xa;&#xa;&lt;div style=&quot;color: rgb(36, 41, 46); background-color: rgb(255, 255, 255); font-family: consolas, &amp;quot;courier new&amp;quot;, monospace; font-weight: normal; font-size: 14px; line-height: 19px;&quot;&gt;&lt;div&gt;&lt;span style=&quot;color: #6f42c1&quot;&gt;output_iterator_tag&lt;/span&gt;&lt;/div&gt;&lt;/div&gt;&#xa;&#xa;" style="html=1;" vertex="1" parent="1">
          <mxGeometry x="120" y="550" width="180" height="50" as="geometry" />
        </mxCell>
        <mxCell id="B84BK40B7i30qpXyUebE-12" value="" style="edgeStyle=orthogonalEdgeStyle;rounded=0;orthogonalLoop=1;jettySize=auto;html=1;" edge="1" parent="1" source="B84BK40B7i30qpXyUebE-10" target="B84BK40B7i30qpXyUebE-11">
          <mxGeometry relative="1" as="geometry" />
        </mxCell>
        <mxCell id="B84BK40B7i30qpXyUebE-10" value="&#xa;&#xa;&lt;div style=&quot;color: rgb(36, 41, 46); background-color: rgb(255, 255, 255); font-family: consolas, &amp;quot;courier new&amp;quot;, monospace; font-weight: normal; font-size: 14px; line-height: 19px;&quot;&gt;&lt;div&gt;&lt;span style=&quot;color: #6f42c1&quot;&gt;random_access_iterator_tag&lt;/span&gt;&lt;/div&gt;&lt;/div&gt;&#xa;&#xa;" style="html=1;" vertex="1" parent="1">
          <mxGeometry x="414" y="690" width="226" height="50" as="geometry" />
        </mxCell>
        <mxCell id="B84BK40B7i30qpXyUebE-14" value="" style="edgeStyle=orthogonalEdgeStyle;rounded=0;orthogonalLoop=1;jettySize=auto;html=1;" edge="1" parent="1" source="B84BK40B7i30qpXyUebE-11" target="B84BK40B7i30qpXyUebE-13">
          <mxGeometry relative="1" as="geometry" />
        </mxCell>
        <mxCell id="B84BK40B7i30qpXyUebE-11" value="&#xa;&#xa;&lt;div style=&quot;color: rgb(36, 41, 46); background-color: rgb(255, 255, 255); font-family: consolas, &amp;quot;courier new&amp;quot;, monospace; font-weight: normal; font-size: 14px; line-height: 19px;&quot;&gt;&lt;div&gt;&lt;span style=&quot;color: #6f42c1&quot;&gt;bidirectional_iterator_tag&lt;/span&gt;&lt;/div&gt;&lt;/div&gt;&#xa;&#xa;" style="html=1;" vertex="1" parent="1">
          <mxGeometry x="414" y="560" width="226" height="50" as="geometry" />
        </mxCell>
        <mxCell id="B84BK40B7i30qpXyUebE-16" value="" style="edgeStyle=orthogonalEdgeStyle;rounded=0;orthogonalLoop=1;jettySize=auto;html=1;" edge="1" parent="1" source="B84BK40B7i30qpXyUebE-13" target="B84BK40B7i30qpXyUebE-15">
          <mxGeometry relative="1" as="geometry" />
        </mxCell>
        <mxCell id="B84BK40B7i30qpXyUebE-13" value="&#xa;&#xa;&lt;div style=&quot;color: rgb(36, 41, 46); background-color: rgb(255, 255, 255); font-family: consolas, &amp;quot;courier new&amp;quot;, monospace; font-weight: normal; font-size: 14px; line-height: 19px;&quot;&gt;&lt;div&gt;&lt;span style=&quot;color: #6f42c1&quot;&gt;forward_iterator_tag&lt;/span&gt;&lt;/div&gt;&lt;/div&gt;&#xa;&#xa;" style="html=1;" vertex="1" parent="1">
          <mxGeometry x="414" y="430" width="226" height="60" as="geometry" />
        </mxCell>
        <mxCell id="B84BK40B7i30qpXyUebE-15" value="&#xa;&#xa;&lt;div style=&quot;color: rgb(36, 41, 46); background-color: rgb(255, 255, 255); font-family: consolas, &amp;quot;courier new&amp;quot;, monospace; font-weight: normal; font-size: 14px; line-height: 19px;&quot;&gt;&lt;div&gt;&lt;span style=&quot;color: #6f42c1&quot;&gt;input_iterator_tag&lt;/span&gt;&lt;/div&gt;&lt;/div&gt;&#xa;&#xa;" style="html=1;" vertex="1" parent="1">
          <mxGeometry x="414" y="300" width="226" height="50" as="geometry" />
        </mxCell>
      </root>
    </mxGraphModel>
  </diagram>
</mxfile>
